<svg xmlns="http://www.w3.org/2000/svg" width="21.491" height="20.944" viewBox="0 0 21.491 20.944"><defs></defs><path class="a" d="M1127.127,788.672a5.822,5.822,0,0,0-2.133-4.261,9.659,9.659,0,0,0-4.527-1.359l-.3-.037a28.547,28.547,0,0,0-3.86-.232,29.324,29.324,0,0,0-5.222.525,9.412,9.412,0,0,0-2.075.608,4.566,4.566,0,0,0-1.99,1.621,7.957,7.957,0,0,0-1,3.851c-.1,1.337-.189,2.925-.152,4.569.014.615.033,1.331.081,2.038a11.7,11.7,0,0,0,1.062,4.575,5.046,5.046,0,0,0,4.044,2.644,38.218,38.218,0,0,0,5.36.512h.119a29.838,29.838,0,0,0,5.37-.549,6.512,6.512,0,0,0,3.861-1.76c1.092-1.2,1.3-2.971,1.412-4.678A41.157,41.157,0,0,0,1127.127,788.672Zm-6.818-4.325a8.525,8.525,0,0,1,3.943,1.137,4.623,4.623,0,0,1,1.581,3.357c.047.356.083.714.114,1.072h-8.687v-5.743a.6.6,0,0,0-.007-.074,27.131,27.131,0,0,1,2.753.213Zm-12.986,5.135a6.913,6.913,0,0,1,.784-3.222,3.248,3.248,0,0,1,1.437-1.153,8.215,8.215,0,0,1,1.787-.517,28.131,28.131,0,0,1,4.631-.491.667.667,0,0,0-.007.072v13h-8.578c-.058-.441-.1-.87-.123-1.263-.047-.68-.065-1.378-.079-1.978C1107.139,792.339,1107.23,790.789,1107.324,789.482Zm.845,10.481a6.725,6.725,0,0,1-.55-1.489h8.337v3.864a.58.58,0,0,0,.007.067,40.073,40.073,0,0,1-4.715-.482A3.683,3.683,0,0,1,1108.168,799.963Zm17.709-3.312c-.1,1.479-.266,3-1.077,3.891a5.386,5.386,0,0,1-3.127,1.354,31.145,31.145,0,0,1-4.421.507c0-.021.006-.042.006-.064v-11.12h8.762A52.221,52.221,0,0,1,1125.878,796.651Z" transform="translate(-1105.863 -782.783)"/></svg>