<svg xmlns="http://www.w3.org/2000/svg" width="19.98" height="21.366" viewBox="0 0 19.98 21.366"><defs></defs><g transform="translate(0 0)"><path class="a" d="M742.3,1239.14Z" transform="translate(-732.497 -1239.14)"/><path class="a" d="M734.382,1239.14v1.662h-.076c4.664,0,8.42,1.549,8.42,3.463,0,2.516-1.833,7-5.128,12.639a3.644,3.644,0,0,1-6.48-.043c-3.249-5.693-4.964-10.218-4.964-12.742,0-1.869,3.292-3.334,8.228-3.335v-1.629h-.152c-4.924,0-9.8,1.64-9.8,4.971,0,3.51,2.685,9.05,5.254,13.553a5.275,5.275,0,0,0,9.316.051c2.609-4.465,5.41-9.967,5.41-13.474C744.41,1240.858,739.318,1239.14,734.382,1239.14Z" transform="translate(-724.43 -1239.14)"/><path class="a" d="M739.395,1251.376l-2.146,3.962a.823.823,0,0,0,.724,1.215h2.874l-1.39,2.375a.823.823,0,0,0,1.421.832l2.115-3.614a.824.824,0,0,0-.71-1.239h-2.928l1.489-2.747a.823.823,0,0,0-1.447-.784Z" transform="translate(-730.173 -1245.47)"/></g></svg>