<svg xmlns="http://www.w3.org/2000/svg" width="16.56" height="16.773" viewBox="0 0 16.56 16.773"><defs><style>.a{stroke:#6c6c6c;stroke-width:0.4px;}</style></defs><g transform="translate(0.2 0.2)"><path class="a" d="M987.729,1498.563l-2.333-2.423a.532.532,0,0,0-.766.738l2.333,2.423a.532.532,0,0,0,.766-.738Z" transform="translate(-971.718 -1483.091)"/><path class="a" d="M955.734,1459.658a7.225,7.225,0,1,0,7.225,7.224A7.233,7.233,0,0,0,955.734,1459.658Zm0,13.385a6.16,6.16,0,1,1,6.16-6.16A6.168,6.168,0,0,1,955.734,1473.043Z" transform="translate(-948.509 -1459.658)"/></g></svg>