<svg xmlns="http://www.w3.org/2000/svg" width="20.229" height="21" viewBox="0 0 20.229 21"><defs></defs><path class="a" d="M1296.005,1727.106a2.434,2.434,0,0,0-1.925-.935h-2.364v-.45a5.32,5.32,0,0,0-1.667-3.858,5.252,5.252,0,0,0-3.958-1.431,5.4,5.4,0,0,0-4.973,5.472v.267h-2.364a2.448,2.448,0,0,0-2.383,3.01l1.766,9.154.022.082a4.435,4.435,0,0,0,4.2,3h8.187a4.43,4.43,0,0,0,4.208-3.033l1.708-9.192A2.436,2.436,0,0,0,1296.005,1727.106Zm-13.65-1.2a4.166,4.166,0,0,1,3.811-4.239,4.064,4.064,0,0,1,4.315,4.055v.45h-8.125Zm12.9,3.034-1.685,9.1a3.2,3.2,0,0,1-3.022,2.148h-8.187a3.2,3.2,0,0,1-3.015-2.129l-1.766-9.142a1.214,1.214,0,0,1,1.177-1.507h2.364v.9a.618.618,0,1,0,1.236,0v-.9h8.125v.9a.618.618,0,1,0,1.236,0v-.9h2.364a1.205,1.205,0,0,1,.953.463A1.227,1.227,0,0,1,1295.252,1728.939Z" transform="translate(-1276.302 -1720.422)"/></svg>